<svg width="72.2" height="16" viewBox="0 0 73 16" fill="none" xmlns="http://www.w3.org/2000/svg" class="h-[16px] w-auto"><g clip-path="url(#clip0_6678_7542)"><mask id="mask0_6678_7542" style="mask-type:luminance" maskUnits="userSpaceOnUse" x="0" y="0" width="73" height="16"><path d="M72.2581 0H0V16H72.2581V0Z" fill="white"></path></mask><g mask="url(#mask0_6678_7542)"><path d="M42.2976 12.0702V15.998C41.2677 16.0008 40.2474 15.7972 39.2951 15.3988C38.3429 15.0005 37.4774 14.4153 36.7483 13.6767C36.0192 12.9381 35.4408 12.0607 35.0463 11.0947C34.6518 10.1287 34.4489 9.09321 34.4492 8.04747L34.4459 0.839524C34.4458 0.729491 34.467 0.620509 34.5084 0.518819C34.5498 0.417129 34.6105 0.324727 34.6871 0.246905C34.7638 0.169082 34.8547 0.107367 34.9549 0.0652927C35.055 0.0232186 35.1623 0.00161176 35.2707 0.00170931H37.4881C37.5964 0.00161184 37.7038 0.023216 37.8039 0.0652856C37.9041 0.107355 37.9951 0.169064 38.0717 0.246882C38.1484 0.3247 38.2091 0.417099 38.2506 0.518791C38.292 0.620483 38.3133 0.729473 38.3132 0.839524L38.3161 8.0282C38.3139 8.03053 38.3122 8.03334 38.3112 8.03642C38.3102 8.0395 38.3099 8.04277 38.3103 8.04599C38.3106 8.57635 38.4142 9.10142 38.615 9.59101C38.8159 10.0806 39.11 10.5251 39.4805 10.8989C39.851 11.2728 40.2906 11.5686 40.7741 11.7694C41.2575 11.9702 41.7753 12.072 42.2976 12.0691" fill="#00C4B3"></path><path d="M32.7004 7.74666C32.6535 6.17452 32.1514 4.65126 31.2569 3.36714C30.3624 2.08302 29.1151 1.09496 27.6709 0.526379C26.2266 -0.042201 24.6493 -0.166099 23.1361 0.17016C21.6228 0.506419 20.2407 1.28793 19.1624 2.41708C18.084 3.54622 17.3572 4.97295 17.0727 6.51906C16.7882 8.06517 16.9586 9.66211 17.5628 11.1104C18.1669 12.5588 19.1779 13.7942 20.4694 14.6626C21.761 15.5309 23.2759 15.9936 24.825 15.9929C26.0436 15.9706 27.2087 15.4807 28.0861 14.6219C28.1479 14.5638 28.2251 14.5254 28.3081 14.5114C28.3912 14.4974 28.4765 14.5083 28.5534 14.543C28.6304 14.5776 28.6957 14.6344 28.7413 14.7063C28.7868 14.7782 28.8106 14.8621 28.8098 14.9476L28.8039 15.9966H32.7004V7.74666ZM24.8119 12.0413C24.0271 12.0321 23.2627 11.7873 22.6147 11.3379C21.9666 10.8885 21.464 10.2545 21.17 9.51567C20.876 8.77687 20.8038 7.96628 20.9625 7.18592C21.1212 6.40555 21.5037 5.69028 22.0618 5.13012C22.6199 4.56995 23.3287 4.18992 24.099 4.03785C24.8694 3.88578 25.6668 3.96847 26.391 4.2755C27.1151 4.58254 27.7337 5.10021 28.1687 5.76336C28.6038 6.42651 28.836 7.20552 28.836 8.00234C28.8295 9.07966 28.4019 10.1103 27.6473 10.8676C26.8927 11.625 25.8729 12.0472 24.8119 12.0413Z" fill="#00C4B3"></path><path d="M13.048 0.566203L9.05887 11.5567C8.87202 12.1011 8.3892 12.1263 8.18301 11.589L3.96613 0.54397C3.90596 0.386221 3.80062 0.2504 3.66369 0.154034C3.52676 0.0576671 3.36453 0.005177 3.19793 0.00333658H0.824729C0.690976 0.00350261 0.559266 0.0366666 0.440934 0.0999743C0.322601 0.163282 0.221192 0.254837 0.145432 0.366761C0.0696722 0.478684 0.0218315 0.607623 0.00602727 0.742481C-0.00977701 0.877339 0.00692848 1.01408 0.054706 1.14093L5.64339 16H11.6266L17.0569 1.13018C17.1036 1.00347 17.1194 0.867139 17.1029 0.732877C17.0863 0.598616 17.038 0.470429 16.9619 0.359308C16.8859 0.248186 16.7845 0.157446 16.6663 0.0948661C16.5482 0.0322864 16.4168 -0.000265436 16.2836 1.63014e-06L13.825 0.00444824C13.6542 0.00480202 13.4877 0.0590514 13.3485 0.159691C13.2094 0.260331 13.1042 0.402386 13.048 0.566203Z" fill="#00C4B3"></path><path d="M59.7296 0.839525L59.7322 8.07193C59.7322 10.1862 58.905 12.214 57.4326 13.709C55.9602 15.204 53.9631 16.044 51.8808 16.044C49.7985 16.044 47.8015 15.204 46.3291 13.709C44.8567 12.214 44.0295 10.1862 44.0295 8.07193L44.0266 0.839525C44.0265 0.729429 44.0477 0.620387 44.0892 0.518648C44.1306 0.41691 44.1914 0.324475 44.2681 0.246643C44.3448 0.168811 44.4359 0.107111 44.5361 0.0650804C44.6363 0.02305 44.7437 0.00151517 44.8521 0.0017103H47.0695C47.1779 0.00156385 47.2852 0.0231373 47.3854 0.0651941C47.4855 0.107251 47.5765 0.168964 47.6531 0.246797C47.7298 0.324629 47.7905 0.41705 47.8319 0.518762C47.8732 0.620474 47.8944 0.729478 47.8943 0.839525L47.8968 8.04821C47.8968 8.05414 47.891 8.06007 47.891 8.07193C47.901 9.13972 48.3258 10.1603 49.073 10.9118C49.8202 11.6632 50.8294 12.0848 51.881 12.0848C52.9327 12.0848 53.9418 11.6632 54.689 10.9118C55.4362 10.1603 55.861 9.13972 55.8711 8.07193C55.8711 8.06007 55.8653 8.05414 55.8653 8.04821L55.8627 0.839525C55.8634 0.617597 55.9505 0.404949 56.105 0.247987C56.2595 0.0910244 56.4689 0.00249206 56.6875 0.0017103H58.9048C59.0132 0.00161274 59.1205 0.0232196 59.2207 0.0652937C59.3208 0.107368 59.4118 0.169083 59.4884 0.246906C59.565 0.324728 59.6257 0.41713 59.6671 0.51882C59.7085 0.62051 59.7298 0.729492 59.7296 0.839525Z" fill="#00C4B3"></path><path d="M69.5342 9.72008L70.3505 9.14424C70.4005 9.10901 70.4431 9.06413 70.4759 9.01216C70.5088 8.9602 70.5312 8.90217 70.542 8.84139C70.5527 8.78062 70.5516 8.71829 70.5386 8.65797C70.5256 8.59765 70.501 8.54052 70.4662 8.48985L69.086 6.47443C69.049 6.42039 69.0272 6.35707 69.0231 6.29135C69.0191 6.22563 69.0328 6.16003 69.0629 6.10171C69.0931 6.04339 69.1384 5.99457 69.1939 5.96059C69.2495 5.9266 69.3131 5.90875 69.378 5.90897H71.7957C71.8564 5.90902 71.9166 5.89691 71.9727 5.87333C72.0288 5.84975 72.0798 5.81517 72.1228 5.77157C72.1657 5.72796 72.1998 5.67619 72.223 5.6192C72.2462 5.56222 72.2581 5.50115 72.2581 5.43948V4.42936C72.2581 4.30484 72.2094 4.18543 72.1226 4.09738C72.0359 4.00934 71.9183 3.95987 71.7957 3.95987H69.378C69.3132 3.96004 69.2496 3.94218 69.1941 3.90821C69.1386 3.87424 69.0933 3.82548 69.0632 3.76721C69.0331 3.70895 69.0194 3.64343 69.0234 3.57777C69.0274 3.5121 69.0491 3.44881 69.086 3.39478L70.4662 1.3801C70.501 1.32946 70.5255 1.27236 70.5385 1.21207C70.5515 1.15178 70.5527 1.08948 70.5419 1.02873C70.5312 0.967987 70.5088 0.909989 70.4759 0.858057C70.4431 0.806124 70.4005 0.761275 70.3505 0.726077L69.5342 0.148759C69.4841 0.113628 69.4277 0.0888551 69.3683 0.0758566C69.3088 0.0628581 69.2474 0.0618888 69.1875 0.073004C69.1277 0.0841192 69.0705 0.107101 69.0194 0.140636C68.9683 0.174171 68.9243 0.217602 68.8897 0.268447L66.8646 3.22803L64.8403 0.268447C64.8058 0.217563 64.7617 0.174095 64.7106 0.140532C64.6595 0.106969 64.6024 0.0839703 64.5425 0.0728526C64.4827 0.0617349 64.4212 0.0627168 64.3617 0.0757421C64.3022 0.0887673 64.2459 0.11358 64.1958 0.148759L63.3795 0.724595C63.3293 0.759772 63.2865 0.804673 63.2535 0.856715C63.2205 0.908757 63.1979 0.966913 63.1871 1.02784C63.1764 1.08876 63.1775 1.15124 63.1906 1.2117C63.2037 1.27216 63.2285 1.32939 63.2634 1.3801L64.6425 3.39589C64.6795 3.44992 64.7012 3.51321 64.7052 3.57888C64.7092 3.64454 64.6954 3.71007 64.6653 3.76833C64.6352 3.82659 64.5899 3.87535 64.5344 3.90932C64.479 3.94329 64.4154 3.96116 64.3506 3.96098H61.9332C61.8106 3.96098 61.693 4.01045 61.6063 4.09849C61.5195 4.18654 61.4708 4.30595 61.4708 4.43047V5.44096C61.4708 5.56548 61.5195 5.68489 61.6063 5.77294C61.693 5.86099 61.8106 5.91045 61.9332 5.91045H64.3509C64.4158 5.91023 64.4795 5.92808 64.535 5.96207C64.5906 5.99606 64.6359 6.04487 64.666 6.10319C64.6961 6.16151 64.7098 6.22711 64.7058 6.29283C64.7017 6.35855 64.68 6.42188 64.6429 6.47591L63.2638 8.49133C63.2291 8.54205 63.2045 8.59921 63.1916 8.65956C63.1786 8.71991 63.1776 8.78226 63.1884 8.84304C63.1992 8.90382 63.2217 8.96183 63.2546 9.01377C63.2875 9.06571 63.3302 9.11055 63.3802 9.14573L64.1966 9.72156C64.2465 9.75682 64.3027 9.78175 64.3621 9.79491C64.4215 9.80807 64.4829 9.80921 64.5427 9.79827C64.6025 9.78732 64.6596 9.76451 64.7108 9.73112C64.7619 9.69774 64.806 9.65445 64.8407 9.60373L66.865 6.64451L68.8901 9.60373C68.9247 9.65446 68.9689 9.69776 69.0201 9.73115C69.0712 9.76454 69.1284 9.78735 69.1882 9.7983C69.2481 9.80924 69.3095 9.8081 69.3689 9.79493C69.4283 9.78176 69.4846 9.75683 69.5345 9.72156" fill="#FF5100"></path></g></g><defs><clipPath id="clip0_6678_7542"><rect width="72.2581" height="16" fill="white"></rect></clipPath></defs></svg>